<svg xmlns="http://www.w3.org/2000/svg" xmlns:xlink="http://www.w3.org/1999/xlink" viewBox="0 0 1237.18 675.64"><defs><style>.cls-1,.cls-15,.cls-18,.cls-19,.cls-2,.cls-20,.cls-3,.cls-4,.cls-5,.cls-6,.cls-7,.cls-8,.cls-9{fill:none;}.cls-2{stroke:#546e7a;}.cls-15,.cls-18,.cls-19,.cls-2,.cls-20,.cls-3,.cls-4,.cls-5,.cls-6,.cls-7,.cls-8,.cls-9{stroke-miterlimit:10;}.cls-15,.cls-19,.cls-2,.cls-20,.cls-3,.cls-4,.cls-5,.cls-6,.cls-7,.cls-8,.cls-9{stroke-width:1.3px;}.cls-20,.cls-3,.cls-4,.cls-5,.cls-9{stroke:#b0bec5;}.cls-4{stroke-dasharray:7.15 3.57;}.cls-5{stroke-dasharray:7.27 3.63;}.cls-6{stroke:#76bf5e;}.cls-7{stroke:#03a9f4;}.cls-8{stroke:#2196f3;}.cls-9{stroke-dasharray:6.96 3.48;}.cls-10{fill:#18ffff;}.cls-11{clip-path:url(#clip-path);}.cls-12{fill:#fff;}.cls-13{fill:#4b7d2f;}.cls-14{fill:#77c159;}.cls-15,.cls-18{stroke:#fff;}.cls-16{fill:#2196f3;}.cls-17{clip-path:url(#clip-path-2);}.cls-18{stroke-width:14px;}.cls-19{stroke:#00e5ff;}.cls-20{stroke-dasharray:7.16 3.58;}</style><clipPath id="clip-path"><path class="cls-1" d="M728.14,455.36c0,36.94,31,66.88,69.3,66.88s69.29-29.94,69.29-66.88-31-66.89-69.29-66.89S728.14,418.41,728.14,455.36Zm11.76,0c0-30.68,25.76-55.54,57.54-55.54S855,424.68,855,455.36s-25.77,55.53-57.54,55.53S739.9,486,739.9,455.36Z"/></clipPath><clipPath id="clip-path-2"><path class="cls-1" d="M721.69,455.36c0,40.37,33.91,73.1,75.75,73.1s75.74-32.73,75.74-73.1-33.91-73.11-75.74-73.11S721.69,415,721.69,455.36Zm18.21,0c0-30.68,25.76-55.54,57.54-55.54S855,424.68,855,455.36s-25.77,55.53-57.54,55.53S739.9,486,739.9,455.36Z"/></clipPath></defs><title>Asset 3</title><g id="Layer_2" data-name="Layer 2"><g id="Layer_1-2" data-name="Layer 1"><line class="cls-2" x1="531.69" y1="598.25" x2="531.69" y2="122.25"/><line class="cls-2" x1="435.69" y1="530.25" x2="435.69" y2="62"/><line class="cls-2" x1="339.69" y1="616.5" x2="339.69" y2="162.25"/><line class="cls-2" x1="243.69" y1="529.25" x2="243.69" y2="62"/><line class="cls-2" x1="147.69" y1="616.5" x2="147.69" y2="62"/><line class="cls-2" x1="1011.69" y1="549.25" x2="1011.69" y2="173.25"/><line class="cls-2" x1="915.69" y1="565.25" x2="915.69" y2="148.25"/><line class="cls-2" x1="819.69" y1="600.25" x2="819.69" y2="83.25"/><line class="cls-2" x1="723.69" y1="546.75" x2="723.69" y2="208.75"/><line class="cls-2" x1="627.69" y1="441.25" x2="627.69" y2="62"/><line class="cls-2" x1="199.18" y1="288.5" x2="1237.18" y2="288.5"/><line class="cls-2" x1="60.18" y1="192.5" x2="1100.18" y2="192.5"/><line class="cls-2" x1="107.18" y1="96.5" x2="867.18" y2="96.5"/><line class="cls-2" x1="60.18" y1="576.17" x2="620.68" y2="576.17"/><line class="cls-2" x1="60.18" y1="480.17" x2="1100.18" y2="480.17"/><line class="cls-2" x1="99.18" y1="384.17" x2="1237.18" y2="384.17"/></g><g id="Layer_4" data-name="Layer 4"><line class="cls-3" x1="627.68" y1="288.75" x2="625.15" y2="286.21"/><line class="cls-4" x1="622.62" y1="283.69" x2="343.48" y2="4.54"/><line class="cls-3" x1="342.21" y1="3.28" x2="339.68" y2="0.75"/><line class="cls-3" x1="1107.63" y1="191.5" x2="1105.09" y2="194.04"/><line class="cls-5" x1="1102.52" y1="196.61" x2="918.79" y2="380.34"/><line class="cls-3" x1="917.51" y1="381.62" x2="914.98" y2="384.15"/><line class="cls-6" x1="147.69" y1="263.69" x2="147.69" y2="312.32"/><line class="cls-6" x1="123" y1="288.38" x2="171.62" y2="288.38"/><circle class="cls-7" cx="147.55" cy="287.62" r="48.63"/><path class="cls-6" d="M472.18,576.75h47.43c99.11.14,49-95.93,142.15-95.8h16.92"/><line class="cls-8" x1="243.03" y1="578.31" x2="339.08" y2="675.18"/><line class="cls-3" x1="244.22" y1="577.5" x2="246.75" y2="574.97"/><line class="cls-9" x1="249.22" y1="572.51" x2="336.57" y2="485.16"/><line class="cls-3" x1="337.8" y1="483.93" x2="340.33" y2="481.39"/></g><g id="Layer_3" data-name="Layer 3"><circle class="cls-10" cx="833.14" cy="492.83" r="82.41"/><g class="cls-11"><ellipse class="cls-12" cx="797.44" cy="455.36" rx="69.3" ry="66.89"/></g><rect class="cls-13" x="243.16" y="299.69" width="288" height="73.1" rx="1.97" ry="1.97" transform="translate(50.91 723.41) rotate(-90)"/><circle class="cls-14" cx="387.16" cy="336.25" r="83.13"/><path class="cls-12" d="M315.35,378.11a83.11,83.11,0,0,0,143.62,0Z"/><path class="cls-15" d="M387.16,419.38a83.14,83.14,0,0,1,0-166.27"/><rect class="cls-14" x="723.18" y="254.92" width="453" height="66.65" rx="1.97" ry="1.97"/><path class="cls-16" d="M533.15,95.25H661.88a2,2,0,0,1,2,2V190.7a2,2,0,0,1-2,2H531.18a0,0,0,0,1,0,0V97.22a2,2,0,0,1,2-2Z"/><polygon class="cls-16" points="531.18 294.25 531.18 161.58 597.51 161.58 531.18 294.25"/><g class="cls-17"><path class="cls-16" d="M797.44,455.36H718.05c0,42,35.84,76.62,79.39,76.62s79.38-34.59,79.38-76.62c0-41.68-35.23-76.11-78.4-76.62Z"/></g><rect class="cls-10" x="718.59" y="21.51" width="10.96" height="190.22" transform="translate(607.45 840.69) rotate(-90)"/><rect class="cls-10" x="718.59" y="45.74" width="10.96" height="190.22" transform="translate(583.22 864.92) rotate(-90)"/><rect class="cls-10" x="682.42" y="106.14" width="10.96" height="117.88" transform="translate(522.82 852.98) rotate(-90)"/><path class="cls-16" d="M218.91,576.25c-13.62-24.26-40.23-40.74-70.82-40.74S90.88,552,77.26,576.25Z"/><path class="cls-14" d="M1012.89,147.25a56.11,56.11,0,0,0-97,0Z"/><polyline class="cls-18" points="598.83 402.59 531.7 471.46 496.16 436.82"/><ellipse class="cls-12" cx="964.39" cy="179.65" rx="4.44" ry="4.6"/><ellipse class="cls-12" cx="964.39" cy="137.58" rx="4.44" ry="4.6"/><ellipse class="cls-12" cx="964.39" cy="158.61" rx="4.44" ry="4.6"/><path class="cls-13" d="M888,226.25H870.46a9.46,9.46,0,0,0-9.47,9.46V340.78a9.47,9.47,0,0,0,9.47,9.47H888Z"/><rect class="cls-12" x="887.9" y="226.25" width="103.03" height="124"/><path class="cls-13" d="M1002.88,226.25H990.81v124h12.07a9.47,9.47,0,0,0,9.47-9.47V235.71A9.46,9.46,0,0,0,1002.88,226.25Z"/><circle class="cls-13" cx="352.99" cy="375.92" r="13.19"/><circle class="cls-13" cx="352.99" cy="296.57" r="13.19"/><circle class="cls-13" cx="333" cy="336.25" r="13.19"/><ellipse class="cls-12" cx="168.67" cy="560.15" rx="4.5" ry="4.34"/><ellipse class="cls-12" cx="127.49" cy="560.15" rx="4.5" ry="4.34"/><ellipse class="cls-12" cx="148.08" cy="560.15" rx="4.5" ry="4.34"/><ellipse class="cls-12" cx="698.09" cy="288.61" rx="5.47" ry="5.28"/><ellipse class="cls-12" cx="748.09" cy="288.61" rx="5.47" ry="5.28"/><ellipse class="cls-12" cx="723.09" cy="288.61" rx="5.47" ry="5.28"/><rect class="cls-8" x="1050.46" y="383.78" width="25.72" height="140.47" transform="translate(2126.64 908.02) rotate(180)"/><rect class="cls-8" x="1012.68" y="383.78" width="25.72" height="140.47" transform="translate(2051.08 908.02) rotate(180)"/><polygon class="cls-19" points="992.18 573.75 944.68 546.32 944.68 601.17 992.18 573.75"/></g><g id="Layer_2-2" data-name="Layer 2"><rect class="cls-19" x="334.97" y="-3.73" width="35.14" height="172.6" rx="17.57" ry="17.57" transform="translate(161.64 -225.1) rotate(45)"/><polygon class="cls-7" points="403.44 599.6 439.48 559.98 387.15 548.58 403.44 599.6"/><polygon class="cls-19" points="73.13 142.48 124.46 127.19 85.55 90.38 73.13 142.48"/><circle class="cls-6" cx="820.43" cy="192.91" r="20.17"/><circle class="cls-6" cx="229.43" cy="398.91" r="20.17"/><circle class="cls-7" cx="673.95" cy="384.31" r="9.82"/><circle class="cls-7" cx="673.95" cy="342.89" r="9.82"/><circle class="cls-7" cx="673.95" cy="425.73" r="9.82"/><line class="cls-20" x1="1012.39" y1="0.46" x2="916.59" y2="96.27"/><rect class="cls-8" x="61.93" y="394.46" width="24.51" height="147.06" transform="translate(-393.81 542.17) rotate(-90)"/><rect class="cls-8" x="61.93" y="354.47" width="24.51" height="147.06" transform="translate(-353.82 502.18) rotate(-90)"/><path class="cls-16" d="M237.94,96.66H221L209.65,119.3v34H243.6V119.3h-17Zm-45.27,0h-17L164.38,119.3v34h34V119.3h-17Z"/></g></g></svg>