<?xml version="1.0" standalone="no"?>
<!DOCTYPE svg PUBLIC "-//W3C//DTD SVG 20010904//EN"
 "http://www.w3.org/TR/2001/REC-SVG-20010904/DTD/svg10.dtd">
<svg version="1.0" xmlns="http://www.w3.org/2000/svg"
 width="305.000000pt" height="305.000000pt" viewBox="0 0 305.000000 305.000000"
 preserveAspectRatio="xMidYMid meet">
<metadata>
Created by potrace 1.11, written by Peter Selinger 2001-2013
</metadata>
<g transform="translate(0.000000,305.000000) scale(0.100000,-0.100000)"
fill="#000000" stroke="none">
<path d="M1280 3025 c-618 -104 -1108 -568 -1240 -1175 -109 -496 42 -1016
401 -1381 227 -230 526 -384 844 -434 124 -19 301 -30 308 -18 3 5 -25 61 -63
124 -38 63 -70 120 -70 127 0 6 -3 12 -8 12 -4 0 -12 8 -19 18 -9 15 -8 19 3
19 7 0 10 -5 7 -11 -4 -6 1 -4 11 3 17 14 17 15 -1 22 -11 4 -25 25 -33 48 -7
23 -17 41 -23 41 -5 0 -7 7 -4 15 4 8 1 17 -5 21 -7 5 -8 2 -3 -6 5 -9 4 -11
-4 -6 -6 4 -9 12 -6 17 4 5 -1 16 -10 25 -17 17 -17 45 0 45 5 0 11 -5 14 -12
2 -7 -1 -9 -8 -5 -6 4 -11 2 -11 -4 0 -7 6 -10 14 -7 7 3 19 0 26 -6 7 -7 3 3
-9 21 -12 18 -26 30 -31 27 -10 -6 -52 50 -43 59 3 3 -2 15 -12 26 -10 11 -16
23 -13 26 4 4 167 -196 477 -585 l27 -34 79 18 c275 61 518 197 730 410 181
180 297 365 371 592 19 57 34 107 34 111 0 4 -20 6 -45 4 -34 -3 -46 0 -51 12
-5 13 -22 16 -88 15 -44 -1 -106 -4 -136 -7 -46 -6 -55 -10 -58 -28 -3 -20
-11 -22 -90 -26 -48 -3 -88 -1 -90 4 -2 4 -19 8 -38 8 -22 0 -37 6 -40 15 -8
21 -134 22 -134 1 0 -8 -16 -17 -37 -21 -21 -4 -44 -12 -52 -18 -12 -9 -13 -9
-7 1 7 12 -6 17 -17 6 -4 -4 -34 -8 -67 -9 -65 -2 -97 -15 -37 -15 30 0 35 -3
30 -17 -4 -11 -8 -12 -11 -5 -2 7 -11 12 -19 12 -13 0 -13 -3 -2 -16 13 -16
23 -51 11 -39 -4 4 -7 11 -7 16 0 5 -4 10 -10 10 -5 1 -19 12 -30 25 -19 22
-28 24 -100 23 -44 -1 -68 -4 -52 -6 28 -4 35 -17 17 -28 -6 -4 -7 -11 -4 -17
4 -7 2 -8 -5 -4 -8 5 -9 12 -2 19 7 9 2 12 -15 12 -13 0 -24 -3 -24 -6 0 -3
-16 -6 -36 -7 -20 -1 -39 -4 -41 -6 -3 -2 -23 2 -45 10 -22 8 -50 12 -63 10
-13 -3 -22 1 -22 9 0 7 8 12 18 10 10 -2 21 0 24 5 3 5 -20 12 -50 15 l-55 7
0 468 c0 387 -2 470 -14 479 -17 15 -57 17 -118 7 l-47 -8 6 476 c3 262 4 476
2 475 -2 -1 -38 -7 -79 -14z m240 -1392 c0 -245 -2 -444 -5 -441 -3 2 -6 32
-7 66 -2 52 -4 59 -17 49 -12 -9 -13 -9 -7 0 9 17 17 58 9 49 -4 -3 -14 1 -23
9 -14 13 -17 13 -17 1 0 -8 5 -14 10 -13 5 1 11 -6 12 -16 3 -18 2 -18 -15 -2
-18 16 -21 38 -7 51 4 4 2 13 -4 21 -13 15 -33 18 -24 3 3 -5 2 -10 -3 -10 -5
0 -12 9 -15 20 -3 11 -10 20 -17 20 -6 0 -8 -4 -5 -10 3 -5 2 -10 -4 -10 -5 0
-9 9 -8 20 1 11 7 19 13 17 7 -1 13 1 13 6 2 21 0 27 -10 27 -5 0 -8 -4 -5 -8
3 -5 -1 -9 -9 -9 -12 0 -11 6 3 29 14 25 15 30 2 38 -16 10 -22 58 -8 66 14 9
21 -3 12 -18 -13 -20 -13 -38 -2 -38 6 0 8 7 4 15 -3 8 -1 15 4 15 6 0 10 9
10 20 0 11 -4 20 -10 20 -12 0 -8 36 6 50 7 7 11 6 11 -4 0 -8 -3 -13 -7 -11
-4 2 -7 -3 -7 -11 0 -13 2 -13 15 0 9 9 12 21 7 33 -10 22 -14 83 -6 80 3 -1
6 3 6 8 0 5 -3 9 -7 8 -11 -4 -10 5 1 11 4 3 17 -4 27 -16 11 -12 14 -18 8
-15 -7 4 -17 0 -24 -8 -9 -11 -8 -14 9 -12 19 1 23 5 20 23 0 3 6 16 15 29 19
28 4 44 -22 23 -15 -11 -15 -11 -5 3 7 9 10 18 7 21 -3 3 0 9 7 14 8 4 10 3 5
-4 -4 -7 -1 -12 7 -12 7 0 14 7 14 15 0 8 -3 15 -7 15 -4 0 -5 11 -2 25 2 14
8 22 13 19 5 -3 9 0 9 5 0 6 -6 11 -12 11 -9 0 -8 4 2 10 8 5 10 10 4 10 -7 0
-15 7 -18 16 -3 8 -2 13 3 10 11 -7 1 46 -13 63 -9 12 -8 12 12 2 12 -7 20
-16 17 -22 -4 -5 0 -9 7 -9 8 0 14 9 15 20 1 13 -2 18 -9 14 -7 -5 -8 -2 -2 7
5 8 9 17 10 22 11 60 14 -23 14 -430z m-50 173 c0 -2 -8 -10 -17 -17 -16 -13
-17 -12 -4 4 13 16 21 21 21 13z m-83 -30 c0 -8 -3 -14 -6 -13 -3 1 -7 -2 -7
-8 -1 -5 1 -9 5 -8 11 3 7 -59 -4 -77 -5 -8 -10 -22 -10 -31 0 -9 -5 -22 -11
-30 -6 -8 -10 -22 -9 -32 2 -9 0 -15 -5 -12 -10 6 -7 29 6 46 6 8 10 26 9 41
-1 15 3 26 8 25 16 -3 16 52 0 64 -11 10 -11 15 3 30 20 23 21 23 21 5z m-141
-217 c10 -17 -13 -36 -27 -22 -12 12 -4 33 11 33 5 0 12 -5 16 -11z m108 -30
c-3 -5 -10 -7 -15 -3 -5 3 -7 10 -3 15 3 5 10 7 15 3 5 -3 7 -10 3 -15z m10
-24 c-9 -14 -18 -25 -21 -25 -5 0 5 18 20 38 17 22 18 13 1 -13z m-10 -43 c3
-5 -1 -9 -9 -9 -8 0 -12 4 -9 9 3 4 7 8 9 8 2 0 6 -4 9 -8z m3 -43 c2 -23 -13
-34 -23 -18 -4 8 -3 9 4 5 15 -9 16 6 2 20 -7 7 -7 11 3 11 7 0 14 -8 14 -18z
m43 -15 c0 -8 -19 -13 -24 -6 -3 5 1 9 9 9 8 0 15 -2 15 -3z m27 -31 c0 -9 -4
-10 -14 -2 -7 6 -13 12 -13 14 0 1 6 2 13 2 8 0 14 -6 14 -14z m-31 -18 c1 -8
-1 -17 -5 -19 -4 -3 -7 6 -7 19 0 25 8 25 12 0z m888 -194 c3 -5 -2 -15 -12
-22 -16 -13 -16 -13 -2 5 14 18 13 19 -2 13 -10 -3 -18 -2 -18 3 0 12 27 13
34 1z m-710 -39 c2 -4 -4 -9 -15 -9 -10 -1 -19 2 -19 8 0 11 27 12 34 1z m318
-19 c-6 -2 -9 -10 -6 -15 4 -7 2 -8 -5 -4 -13 9 -5 26 12 25 9 0 8 -2 -1 -6z
m-189 -36 c4 3 7 4 7 1 0 -3 -8 -12 -17 -19 -10 -7 -15 -9 -11 -5 4 5 2 16 -5
25 -10 14 -10 14 4 4 9 -7 19 -10 22 -6z"/>
<path d="M1413 1705 c0 -8 4 -12 9 -9 4 3 8 9 8 15 0 5 -4 9 -8 9 -5 0 -9 -7
-9 -15z"/>
<path d="M1387 2219 c7 -7 15 -10 18 -7 3 3 -2 9 -12 12 -14 6 -15 5 -6 -5z"/>
<path d="M1828 1173 c7 -3 16 -2 19 1 4 3 -2 6 -13 5 -11 0 -14 -3 -6 -6z"/>
<path d="M1878 1173 c12 -2 30 -2 40 0 9 3 -1 5 -23 4 -22 0 -30 -2 -17 -4z"/>
<path d="M2181 1164 c0 -11 3 -14 6 -6 3 7 2 16 -1 19 -3 4 -6 -2 -5 -13z"/>
<path d="M1603 1163 c9 -2 25 -2 35 0 9 3 1 5 -18 5 -19 0 -27 -2 -17 -5z"/>
<path d="M2023 1143 c9 -2 25 -2 35 0 9 3 1 5 -18 5 -19 0 -27 -2 -17 -5z"/>
<path d="M1335 576 c10 -14 19 -26 22 -26 7 0 -17 39 -28 46 -6 3 -3 -5 6 -20z"/>
<path d="M1390 476 c0 -2 8 -10 18 -17 15 -13 16 -12 3 4 -13 16 -21 21 -21
13z"/>
<path d="M1430 456 c0 -2 8 -10 18 -17 15 -13 16 -12 3 4 -13 16 -21 21 -21
13z"/>
</g>
</svg>
